<svg xmlns="http://www.w3.org/2000/svg" fill="none" viewBox="0 0 197 60">
  <path fill="currentColor" d="M83.842 36.548c-1.21-.546-2.087-1.359-2.761-2.375C80.407 33.156 80.075 32 80 30.642h3.157c.065 1.155.61 2.108 1.413 2.846.803.749 2.023 1.08 3.36 1.08 1.21 0 2.152-.267 2.89-.748.739-.546 1.145-1.22 1.145-2.172 0-.674-.203-1.22-.61-1.627-.406-.406-.941-.674-1.616-.877-.674-.203-1.68-.407-2.964-.674h-.14c-1.209-.203-2.29-.47-3.157-.877-.877-.407-1.616-.953-2.215-1.702-.535-.749-.803-1.765-.803-2.985 0-1.155.268-2.172.878-3.05.61-.877 1.413-1.561 2.494-2.107A9.005 9.005 0 0 1 87.46 17c1.412 0 2.686.267 3.767.813 1.145.546 2.023 1.22 2.622 2.172a5.424 5.424 0 0 1 1.006 3.189h-3.157a3.725 3.725 0 0 0-1.349-2.44c-.738-.61-1.744-.952-2.89-.952-1.145 0-2.086.267-2.76.749-.675.47-1.007 1.22-1.007 2.108 0 .674.204 1.155.61 1.562.407.342.942.674 1.616.877.675.204 1.617.407 2.89.674 1.274.204 2.355.546 3.297.878.941.342 1.68.952 2.29 1.7.61.75.877 1.766.877 2.986 0 1.156-.331 2.172-.941 3.124-.61.953-1.477 1.627-2.622 2.172-1.146.546-2.355.75-3.768.75-1.552.063-2.964-.204-4.099-.814ZM111.498 25.966c-.611-1.155-1.413-1.969-2.43-2.578-1.07-.546-2.215-.878-3.564-.814-1.273 0-2.28.268-3.157.814a7.87 7.87 0 0 0-1.573 1.583l-.375-2.257h-2.622V43h3.018v-7.886c.407.6.91 1.103 1.552 1.509.877.535 1.948.813 3.232.813a6.712 6.712 0 0 0 3.489-.952c1.017-.61 1.819-1.498 2.43-2.643.599-1.091.866-2.375.866-3.873 0-1.498-.267-2.846-.866-4.002Zm-2.762 6.58c-.331.675-.802 1.295-1.477 1.702a4.218 4.218 0 0 1-2.226.61c-.867 0-1.541-.204-2.215-.61-.61-.482-1.145-1.027-1.477-1.766a6.195 6.195 0 0 1-.546-2.578c0-.953.203-1.766.546-2.515.332-.749.803-1.284 1.477-1.69.61-.407 1.348-.61 2.215-.482.814 0 1.552.204 2.226.61.675.407 1.146.952 1.477 1.701.332.75.535 1.563.535 2.504a6.1 6.1 0 0 1-.535 2.515ZM117.823 36.484c-1.145-.61-2.012-1.498-2.622-2.643a8.152 8.152 0 0 1-.942-3.862c0-1.423.332-2.782.942-3.938.61-1.155 1.477-1.969 2.622-2.578a8.031 8.031 0 0 1 3.831-.953c1.413 0 2.761.343 3.832.953a6.343 6.343 0 0 1 2.622 2.578c.599 1.156.942 2.44.942 3.938 0 1.498-.343 2.782-.942 3.937-.61 1.156-1.477 1.969-2.622 2.643a8.035 8.035 0 0 1-3.832.952c-1.477-.064-2.761-.407-3.831-1.016v-.011Zm6.057-2.311c.675-.407 1.146-.952 1.477-1.701a6.062 6.062 0 0 0 .535-2.515c0-.952-.203-1.765-.535-2.514a3.634 3.634 0 0 0-1.477-1.701 4.207 4.207 0 0 0-2.215-.61c-.803 0-1.616.203-2.215.61-.675.406-1.146.952-1.477 1.7a6.062 6.062 0 0 0-.536 2.515c0 .953.204 1.766.536 2.515.331.749.877 1.284 1.477 1.7.674.407 1.412.61 2.215.61.803 0 1.616-.203 2.215-.61ZM139.41 22.778v2.846h-1.349c-1.273 0-2.151.407-2.75 1.22-.546.823-.878 1.904-.878 3.188v7.33h-3.029V22.713h2.761l.322 2.193c.363-.567.813-1.049 1.295-1.38.674-.546 1.68-.75 2.953-.75h.675ZM141.432 18.573h3.029v4.066h3.5v2.643h-3.5v7.596c0 .61.139 1.017.332 1.22.203.267.61.342 1.145.342h2.355v2.718h-2.965c-1.348 0-2.354-.342-2.954-.952-.61-.61-.942-1.627-.942-2.985V18.562v.01ZM153.334 36.548c-1.21-.546-2.087-1.359-2.762-2.375-.674-1.017-1.006-2.172-1.081-3.531h3.158c.064 1.155.61 2.108 1.412 2.846.803.749 2.023 1.08 3.361 1.08 1.209 0 2.151-.267 2.89-.748.738-.546 1.145-1.22 1.145-2.172 0-.674-.203-1.22-.61-1.627-.407-.406-.942-.674-1.616-.877-.674-.203-1.681-.407-2.965-.674h-.128c-1.21-.203-2.291-.47-3.157-.877-.878-.407-1.617-.953-2.216-1.702-.535-.749-.803-1.765-.803-2.985 0-1.155.268-2.172.878-3.05.61-.877 1.413-1.561 2.494-2.107a9.004 9.004 0 0 1 3.628-.749c1.413 0 2.686.267 3.767.813 1.145.546 2.023 1.22 2.622 2.172a5.418 5.418 0 0 1 1.006 3.189h-3.168a3.68 3.68 0 0 0-1.348-2.44c-.739-.61-1.745-.952-2.89-.952s-2.087.267-2.761.749c-.674.47-1.006 1.22-1.006 2.108 0 .674.203 1.155.61 1.562a4.54 4.54 0 0 0 1.616.877c.674.204 1.616.407 2.89.674 1.273.204 2.354.546 3.296.878.942.342 1.68.952 2.29 1.7.61.75.878 1.766.878 2.986 0 1.156-.342 2.172-.942 3.124-.61.953-1.477 1.627-2.622 2.172-1.145.546-2.355.75-3.767.75-1.552.063-2.89-.204-4.099-.814ZM170.287 36.484a6.411 6.411 0 0 1-2.623-2.579c-.61-1.155-.941-2.44-.941-3.937 0-1.498.267-2.846.877-3.938.61-1.08 1.413-1.968 2.494-2.578 1.081-.61 2.29-.952 3.703-.952 1.413 0 2.622.267 3.703.813 1.081.545 1.884 1.359 2.483 2.44.61 1.08.942 2.31.942 3.659v.545c0 .203 0 .407-.064.61h-10.896v.14c.065.812.204 1.561.536 2.171.331.61.802 1.08 1.412 1.423a4.12 4.12 0 0 0 2.087.546c.942 0 1.745-.203 2.355-.674.674-.47 1.081-1.08 1.273-1.905h3.093c-.203.953-.535 1.83-1.145 2.579a7.345 7.345 0 0 1-2.215 1.83c-.942.406-1.948.674-3.093.674-1.552.064-2.89-.268-3.971-.878l-.01.011Zm1.819-11.063a3.352 3.352 0 0 0-1.349 1.22c-.342.545-.61 1.08-.674 1.765h7.738c-.139-1.08-.535-1.969-1.209-2.515-.675-.61-1.616-.877-2.687-.877-.674-.064-1.273.064-1.819.407ZM186.362 36.484a6.409 6.409 0 0 1-2.622-2.579c-.61-1.155-.942-2.44-.942-3.937 0-1.498.267-2.846.877-3.938.61-1.08 1.413-1.968 2.494-2.578 1.081-.61 2.29-.952 3.703-.952 1.413 0 2.622.267 3.703.813 1.07.545 1.884 1.359 2.483 2.44.61 1.08.942 2.31.942 3.659v.545c0 .203 0 .407-.064.61h-10.895v.14c.064.812.203 1.561.535 2.171.332.61.802 1.08 1.412 1.423a4.123 4.123 0 0 0 2.087.546c.942 0 1.756-.203 2.355-.674.674-.47 1.081-1.08 1.274-1.905h3.093c-.204.953-.535 1.83-1.146 2.579a7.345 7.345 0 0 1-2.215 1.83c-.942.406-1.948.674-3.093.674-1.552.064-2.825-.268-3.971-.878l-.01.011Zm1.819-11.063a3.343 3.343 0 0 0-1.348 1.22c-.343.545-.61 1.08-.675 1.765h7.738c-.139-1.08-.535-1.969-1.209-2.515-.674-.61-1.616-.877-2.686-.877-.675-.064-1.274.064-1.82.407ZM30 0C13.437 0 0 13.435 0 30c0 7.643 2.864 14.63 7.573 19.924l13.993-16.565 9.62-14.902-5.602-2.828-8.108 7.248c-.724.728-1.91.666-2.633-.125-.735-.728-.661-1.913.126-2.641L23.937 12c.587-.53 1.385-.593 2.108-.26l10.752 5.407a34.627 34.627 0 0 1 3.231 2.829l3.619 7.06 7.52-4.481c.85-.53 2.046-.27 2.57.655a1.86 1.86 0 0 1-.66 2.568l-9.032 5.407c-.325.198-.66.27-.986.27-.66 0-1.258-.332-1.584-.862l-3.954-6.198-6.399 10.024 7.06 1.643c.786.136 1.384.666 1.71 1.394.262.717.199 1.58-.263 2.235L31.584 52.42c-.724 1.05-2.108 1.321-3.168.728-1.185-.665-1.584-2.11-.923-3.296l6.262-9.827-9.157-2.11-13.385 15.462A29.8 29.8 0 0 0 30 60c16.573 0 30-13.435 30-30C60 13.435 46.573 0 30 0Zm12.923 17.075a5.014 5.014 0 0 1-5.014-5.013 5.014 5.014 0 0 1 10.028 0 5.014 5.014 0 0 1-5.014 5.013Z"/>
</svg>
